<?xml version="1.0" encoding="utf-8"?>
<svg viewBox="0 0 500 500" xmlns="http://www.w3.org/2000/svg">
  <g transform="matrix(0.7083439826965332, 0, 0, 0.7083439826965332, 72.91403095518194, 72.91386310850456)">
    <title>Squirrel</title>
    <path stroke-width="0" d="M 153.69 -102.559 C 162.029 -103.354 171.21 -102.839 180.193 -101.5 C 189.572 -100.101 199.578 -97.87 208.813 -94.08 C 218.325 -90.176 227.55 -84.837 236.374 -78.18 C 245.799 -71.069 254.292 -63.337 263.408 -52.206 C 274.557 -38.593 290.895 -14.03 297.329 -0.262 C 301.742 9.179 302.44 14.826 303.689 23.058 C 305.009 31.737 302.691 37.401 304.749 50.62 C 308.147 72.424 290.095 130.82 279.309 156.627 C 271.559 175.17 265.609 184.772 253.336 197.441 C 239.112 212.126 211.945 224.692 196.093 237.722 C 182.636 248.786 173.34 258.114 162.7 270.056 C 151.561 282.559 138.709 298.473 130.897 311.397 C 124.339 322.249 117.347 331.066 117.117 342.139 C 116.865 354.228 123.78 366.178 131.957 381.362 C 143.014 401.888 174.649 434.151 182.842 454.507 C 188.629 468.884 188.354 480.163 187.082 491.609 C 185.893 502.306 185.231 528.358 185.564 538.112 C 185.977 550.233 137.612 567.773 114.131 558.032 C 105.391 554.407 72.428 550.396 58.051 535.679 C 18.145 494.831 -2.946 397.91 0.333 326.851 C 4.739 231.337 58.967 113.826 134.858 96.668 C 145.035 94.367 157.808 76.583 160.725 66.603 C 163.37 57.55 153.852 48.856 148.39 46.911 C 143.786 45.27 129.421 42.483 121.888 38.429 C 114.955 34.698 109.729 30.631 104.397 24.118 C 98.036 16.35 90.571 3.907 87.434 -6.624 C 84.459 -16.618 83.928 -27.338 85.315 -37.367 C 86.716 -47.485 90.965 -58.637 95.916 -67.048 C 100.521 -74.868 107.184 -81.515 113.407 -86.66 C 119.086 -91.352 124.858 -94.625 131.428 -97.26 C 138.24 -99.992 145.829 -101.814 153.69 -102.559 Z" style="stroke-width: 2px; fill: rgb(138, 109, 62);">
      <title>Tail</title>
    </path>
    <ellipse style="fill: rgb(160, 127, 72);" cx="229.778" cy="369.064" rx="132.69" ry="197.258">
      <title>MainBody</title>
    </ellipse>
    <path style="fill: rgb(180, 183, 165);" d="M 353.448 299.99 C 353.448 299.99 371.099 360.234 360.571 400.636 C 357.746 411.478 390.106 417.147 368.842 479.811 C 361.894 500.287 353.201 548.052 316.363 556.928 C 293.469 562.444 291.033 551.697 277.49 557.776 C 240.46 574.391 209.6 562.048 209.6 561.575 C 209.6 561.101 209.127 555.877 223.369 503.656 C 237.611 451.432 229.066 393.988 217.673 374.523 C 206.277 355.059 190.61 360.757 190.61 360.757 C 190.61 360.757 199.632 334.17 201.531 313.758 C 202.132 307.299 227.013 248.793 244.338 263.124 C 262.471 278.124 251.259 285.729 296.936 297.033 C 331.081 305.482 353.796 299.789 353.796 299.789">
      <title>BodyHighlight</title>
    </path>
    <path style="paint-order: fill; fill: rgb(164, 134, 81);" d="M 227.466 103.93 C 227.466 103.93 187.551 18.838 222.202 34.628 C 256.852 50.417 248.425 77.478 273.52 79.367 C 329.7 83.594 344.31 80.999 345.012 80.243 C 363.302 60.582 363.824 49.044 378.786 39.893 C 413.299 18.786 391.944 92.086 391.944 92.086 C 391.944 92.086 404.227 139.019 402.912 165.774 C 401.595 192.53 385.78 281.106 364.75 294.726 C 343.721 308.346 278.337 296.788 267.379 287.708 C 189.209 222.94 227.464 103.93 227.464 103.93">
      <title>Head</title>
    </path>
    <path style="fill: rgb(216, 216, 216);" d="M 252.877 147.864 C 252.877 147.864 266.598 131.679 289.32 140.684 C 312.043 149.688 312.581 204.461 312.581 204.461 C 314.843 205.677 293.465 209.272 275.923 202.316 C 272.912 201.122 254.992 190.488 249.903 176.566 C 245.131 163.519 252.877 147.864 252.877 147.864 Z">
      <title>EyeBackground1</title>
    </path>
    <path style="fill: rgb(216, 216, 216);" d="M 402.229 140.513 C 402.229 140.513 402.155 128.898 399.84 131.748 C 395.151 137.52 386.046 161.195 386.868 174.459 C 388.095 194.274 393.934 200.114 395.93 203.184 C 397.927 206.256 398.849 200.42 398.849 200.42">
      <title>EyeBackground2</title>
    </path>
    <path style="stroke: rgb(0, 0, 0); fill: rgb(0, 6, 15);" d="M 264.742 153.657 C 264.742 153.657 273.133 140.54 287.821 152.605 C 302.508 164.67 301.982 197.191 301.982 197.191 C 301.982 197.191 285.198 203.486 267.888 185.651 C 250.58 167.82 264.217 154.704 264.742 153.657 Z">
      <title>Eye1</title>
    </path>
    <path style="stroke: rgb(0, 0, 0); fill: rgb(7, 16, 12);" d="M 402.68 141.949 C 402.68 141.949 412.424 148.648 416.809 163.719 C 421.197 178.79 398.169 199.693 398.169 199.693 C 398.169 199.693 402.01 195.319 396.528 174.901 C 391.046 154.486 402.132 142.921 402.68 141.949 Z">
      <title>Eye2</title>
    </path>
    <path stroke-width="0" d="M 274.694 152.468 C 275.999 152.011 280.089 151.877 281.659 152.468 C 282.804 152.899 283.73 153.978 283.896 154.706 C 284.033 155.299 283.833 156.009 283.149 156.446 C 281.968 157.209 277.224 157.745 275.689 157.443 C 274.761 157.26 274.324 156.786 273.948 156.2 C 273.547 155.569 273.27 154.353 273.451 153.711 C 273.606 153.158 273.942 152.73 274.694 152.468 Z M 403.872 147.994 C 404.657 147.994 406.209 149.369 406.948 150.388 C 407.696 151.417 408.854 153.554 408.316 154.148 C 407.675 154.855 402.808 154.238 402.162 153.466 C 401.712 152.928 401.324 152.641 401.054 152.191 C 400.801 151.774 400.864 151.008 400.795 150.729 C 400.724 150.446 401.981 149.83 402.504 149.363 C 403.001 148.916 403.279 147.994 403.872 147.994 Z" style="stroke-width: 2px; fill: rgb(255, 255, 255);">
      <title>Eye Highlights</title>
    </path>
    <rect x="306.343" y="270.484" width="63.024" height="115.063" style="fill: rgb(39, 39, 39);">
      <title>Keyboard</title>
    </rect>
    <g transform="matrix(1.568481, 0, 0, 1.568481, -130.961317, -128.944014)" style="">
      <title>Keys</title>
      <g transform="matrix(1, 0, 0, 1, 3, 0)">
        <title>Key</title>
        <rect x="279.42" y="258.018" width="8.435" height="8.435" style="fill: none;">
          <title>KeyBox</title>
        </rect>
        <rect x="280.315" y="258.913" width="6.645" height="6.645" style="fill: rgb(17, 17, 17);">
          <title>KeyCenter</title>
        </rect>
      </g>
      <g transform="matrix(1, 0, 0, 1, 11.435016, 0.000028)">
        <title>Key</title>
        <rect x="279.42" y="258.018" width="8.435" height="8.435" style="fill: none;">
          <title>KeyBox</title>
        </rect>
        <rect x="280.315" y="258.913" width="6.645" height="6.645" style="fill: rgb(17, 17, 17);">
          <title>KeyCenter</title>
        </rect>
      </g>
      <g transform="matrix(1, 0, 0, 1, 19.87002, 0)">
        <title>Key</title>
        <rect x="279.42" y="258.018" width="8.435" height="8.435" style="fill: none;">
          <title>KeyBox</title>
        </rect>
        <rect x="280.315" y="258.913" width="6.645" height="6.645" style="fill: rgb(17, 17, 17);">
          <title>KeyCenter</title>
        </rect>
      </g>
      <g transform="matrix(1, 0, 0, 1, 28.305021, 0)">
        <title>Key</title>
        <rect x="279.42" y="258.018" width="8.435" height="8.435" style="fill: none;">
          <title>KeyBox</title>
        </rect>
        <rect x="280.315" y="258.913" width="6.645" height="6.645" style="fill: rgb(17, 17, 17);">
          <title>KeyCenter</title>
        </rect>
      </g>
      <g transform="matrix(1, 0, 0, 1, 3, 8.434996)">
        <title>Key</title>
        <rect x="279.42" y="258.018" width="8.435" height="8.435" style="fill: none;">
          <title>KeyBox</title>
        </rect>
        <rect x="280.315" y="258.913" width="6.645" height="6.645" style="fill: rgb(17, 17, 17);">
          <title>KeyCenter</title>
        </rect>
      </g>
      <g transform="matrix(1, 0, 0, 1, 11.434995, 8.435028)">
        <title>Key</title>
        <rect x="279.42" y="258.018" width="8.435" height="8.435" style="fill: none;">
          <title>KeyBox</title>
        </rect>
        <rect x="280.315" y="258.913" width="6.645" height="6.645" style="fill: rgb(17, 17, 17);">
          <title>KeyCenter</title>
        </rect>
      </g>
      <g transform="matrix(1, 0, 0, 1, 19.869993, 8.434996)">
        <title>Key</title>
        <rect x="279.42" y="258.018" width="8.435" height="8.435" style="fill: none;">
          <title>KeyBox</title>
        </rect>
        <rect x="280.315" y="258.913" width="6.645" height="6.645" style="fill: rgb(17, 17, 17);">
          <title>KeyCenter</title>
        </rect>
      </g>
      <g transform="matrix(1, 0, 0, 1, 28.30499, 8.434996)">
        <title>Key</title>
        <rect x="279.42" y="258.018" width="8.435" height="8.435" style="fill: none;">
          <title>KeyBox</title>
        </rect>
        <rect x="280.315" y="258.913" width="6.645" height="6.645" style="fill: rgb(17, 17, 17);">
          <title>KeyCenter</title>
        </rect>
      </g>
      <g transform="matrix(1, 0, 0, 1, 3.000021, 16.869993)">
        <title>Key</title>
        <rect x="279.42" y="258.018" width="8.435" height="8.435" style="fill: none;">
          <title>KeyBox</title>
        </rect>
        <rect x="280.315" y="258.913" width="6.645" height="6.645" style="fill: rgb(17, 17, 17);">
          <title>KeyCenter</title>
        </rect>
      </g>
      <g transform="matrix(1, 0, 0, 1, 11.435022, 16.869993)">
        <title>Key</title>
        <rect x="279.42" y="258.018" width="8.435" height="8.435" style="fill: none;">
          <title>KeyBox</title>
        </rect>
        <rect x="280.315" y="258.913" width="6.645" height="6.645" style="fill: rgb(17, 17, 17);">
          <title>KeyCenter</title>
        </rect>
      </g>
      <g transform="matrix(1, 0, 0, 1, 19.869991, 16.869993)">
        <title>Key</title>
        <rect x="279.42" y="258.018" width="8.435" height="8.435" style="fill: none;">
          <title>KeyBox</title>
        </rect>
        <rect x="280.315" y="258.913" width="6.645" height="6.645" style="fill: rgb(17, 17, 17);">
          <title>KeyCenter</title>
        </rect>
      </g>
      <g transform="matrix(1, 0, 0, 1, 28.305019, 16.869993)">
        <title>Key</title>
        <rect x="279.42" y="258.018" width="8.435" height="8.435" style="fill: none;">
          <title>KeyBox</title>
        </rect>
        <rect x="280.315" y="258.913" width="6.645" height="6.645" style="fill: rgb(17, 17, 17);">
          <title>KeyCenter</title>
        </rect>
      </g>
      <g transform="matrix(1, 0, 0, 1, 2.999991, 25.305027)">
        <title>Key</title>
        <rect x="279.42" y="258.018" width="8.435" height="8.435" style="fill: none;">
          <title>KeyBox</title>
        </rect>
        <rect x="280.315" y="258.913" width="6.645" height="6.645" style="fill: rgb(17, 17, 17);">
          <title>KeyCenter</title>
        </rect>
      </g>
      <g transform="matrix(1, 0, 0, 1, 11.434991, 25.305027)">
        <title>Key</title>
        <rect x="279.42" y="258.018" width="8.435" height="8.435" style="fill: none;">
          <title>KeyBox</title>
        </rect>
        <rect x="280.315" y="258.913" width="6.645" height="6.645" style="fill: rgb(17, 17, 17);">
          <title>KeyCenter</title>
        </rect>
      </g>
      <g transform="matrix(1, 0, 0, 1, 19.869991, 25.305027)">
        <title>Key</title>
        <rect x="279.42" y="258.018" width="8.435" height="8.435" style="fill: none;">
          <title>KeyBox</title>
        </rect>
        <rect x="280.315" y="258.913" width="6.645" height="6.645" style="fill: rgb(17, 17, 17);">
          <title>KeyCenter</title>
        </rect>
      </g>
      <g transform="matrix(1, 0, 0, 1, 28.30499, 25.305027)">
        <title>Key</title>
        <rect x="279.42" y="258.018" width="8.435" height="8.435" style="fill: none;">
          <title>KeyBox</title>
        </rect>
        <rect x="280.315" y="258.913" width="6.645" height="6.645" style="fill: rgb(17, 17, 17);">
          <title>KeyCenter</title>
        </rect>
      </g>
      <g transform="matrix(1, 0, 0, 1, 2.999991, 33.740028)">
        <title>Key</title>
        <rect x="279.42" y="258.018" width="8.435" height="8.435" style="fill: none;">
          <title>KeyBox</title>
        </rect>
        <rect x="280.315" y="258.913" width="6.645" height="6.645" style="fill: rgb(17, 17, 17);">
          <title>KeyCenter</title>
        </rect>
      </g>
      <g transform="matrix(1, 0, 0, 1, 11.434991, 33.740028)">
        <title>Key</title>
        <rect x="279.42" y="258.018" width="8.435" height="8.435" style="fill: none;">
          <title>KeyBox</title>
        </rect>
        <rect x="280.315" y="258.913" width="6.645" height="6.645" style="fill: rgb(17, 17, 17);">
          <title>KeyCenter</title>
        </rect>
      </g>
      <g transform="matrix(1, 0, 0, 1, 19.869991, 33.740028)">
        <title>Key</title>
        <rect x="279.42" y="258.018" width="8.435" height="8.435" style="fill: none;">
          <title>KeyBox</title>
        </rect>
        <rect x="280.315" y="258.913" width="6.645" height="6.645" style="fill: rgb(17, 17, 17);">
          <title>KeyCenter</title>
        </rect>
      </g>
      <g transform="matrix(1, 0, 0, 1, 28.30499, 33.740028)">
        <title>Key</title>
        <rect x="279.42" y="258.018" width="8.435" height="8.435" style="fill: none;">
          <title>KeyBox</title>
        </rect>
        <rect x="280.315" y="258.913" width="6.645" height="6.645" style="fill: rgb(17, 17, 17);">
          <title>KeyCenter</title>
        </rect>
      </g>
      <g transform="matrix(1, 0, 0, 1, 2.999991, 42.175029)">
        <title>Key</title>
        <rect x="279.42" y="258.018" width="8.435" height="8.435" style="fill: none;">
          <title>KeyBox</title>
        </rect>
        <rect x="280.315" y="258.913" width="6.645" height="6.645" style="fill: rgb(17, 17, 17);">
          <title>KeyCenter</title>
        </rect>
      </g>
      <g transform="matrix(1, 0, 0, 1, 11.434991, 42.175029)">
        <title>Key</title>
        <rect x="279.42" y="258.018" width="8.435" height="8.435" style="fill: none;">
          <title>KeyBox</title>
        </rect>
        <rect x="280.315" y="258.913" width="6.645" height="6.645" style="fill: rgb(17, 17, 17);">
          <title>KeyCenter</title>
        </rect>
      </g>
      <g transform="matrix(1, 0, 0, 1, 19.869991, 42.175029)">
        <title>Key</title>
        <rect x="279.42" y="258.018" width="8.435" height="8.435" style="fill: none;">
          <title>KeyBox</title>
        </rect>
        <rect x="280.315" y="258.913" width="6.645" height="6.645" style="fill: rgb(17, 17, 17);">
          <title>KeyCenter</title>
        </rect>
      </g>
      <g transform="matrix(1, 0, 0, 1, 28.30499, 42.175029)">
        <title>Key</title>
        <rect x="279.42" y="258.018" width="8.435" height="8.435" style="fill: none;">
          <title>KeyBox</title>
        </rect>
        <rect x="280.315" y="258.913" width="6.645" height="6.645" style="fill: rgb(17, 17, 17);">
          <title>KeyCenter</title>
        </rect>
      </g>
      <g transform="matrix(1, 0, 0, 1, 2.999989, 50.61003)">
        <title>Key</title>
        <rect x="279.42" y="258.018" width="8.435" height="8.435" style="fill: none;">
          <title>KeyBox</title>
        </rect>
        <rect x="280.315" y="258.913" width="6.645" height="6.645" style="fill: rgb(17, 17, 17);">
          <title>KeyCenter</title>
        </rect>
      </g>
      <g transform="matrix(1, 0, 0, 1, 11.434989, 50.61003)">
        <title>Key</title>
        <rect x="279.42" y="258.018" width="8.435" height="8.435" style="fill: none;">
          <title>KeyBox</title>
        </rect>
        <rect x="280.315" y="258.913" width="6.645" height="6.645" style="fill: rgb(17, 17, 17);">
          <title>KeyCenter</title>
        </rect>
      </g>
      <g transform="matrix(1, 0, 0, 1, 19.869991, 50.61003)">
        <title>Key</title>
        <rect x="279.42" y="258.018" width="8.435" height="8.435" style="fill: none;">
          <title>KeyBox</title>
        </rect>
        <rect x="280.315" y="258.913" width="6.645" height="6.645" style="fill: rgb(17, 17, 17);">
          <title>KeyCenter</title>
        </rect>
      </g>
      <g transform="matrix(1, 0, 0, 1, 28.30499, 50.61003)">
        <title>Key</title>
        <rect x="279.42" y="258.018" width="8.435" height="8.435" style="fill: none;">
          <title>KeyBox</title>
        </rect>
        <rect x="280.315" y="258.913" width="6.645" height="6.645" style="fill: rgb(17, 17, 17);">
          <title>KeyCenter</title>
        </rect>
      </g>
      <g transform="matrix(1, 0, 0, 1, 2.999989, 59.045028)">
        <title>Key</title>
        <rect x="279.42" y="258.018" width="8.435" height="8.435" style="fill: none;">
          <title>KeyBox</title>
        </rect>
        <rect x="280.315" y="258.913" width="6.645" height="6.645" style="fill: rgb(17, 17, 17);">
          <title>KeyCenter</title>
        </rect>
      </g>
      <g transform="matrix(1, 0, 0, 1, 11.434989, 59.045028)">
        <title>Key</title>
        <rect x="279.42" y="258.018" width="8.435" height="8.435" style="fill: none;">
          <title>KeyBox</title>
        </rect>
        <rect x="280.315" y="258.913" width="6.645" height="6.645" style="fill: rgb(17, 17, 17);">
          <title>KeyCenter</title>
        </rect>
      </g>
      <g transform="matrix(1, 0, 0, 1, 19.869991, 59.045028)">
        <title>Key</title>
        <rect x="279.42" y="258.018" width="8.435" height="8.435" style="fill: none;">
          <title>KeyBox</title>
        </rect>
        <rect x="280.315" y="258.913" width="6.645" height="6.645" style="fill: rgb(17, 17, 17);">
          <title>KeyCenter</title>
        </rect>
      </g>
      <g transform="matrix(1, 0, 0, 1, 28.30499, 59.045028)">
        <title>Key</title>
        <rect x="279.42" y="258.018" width="8.435" height="8.435" style="fill: none;">
          <title>KeyBox</title>
        </rect>
        <rect x="280.315" y="258.913" width="6.645" height="6.645" style="fill: rgb(17, 17, 17);">
          <title>KeyCenter</title>
        </rect>
      </g>
    </g>
    <g transform="matrix(1.568481, 0, 0, 1.568481, -122.19023, -89.348754)" style="">
      <title>Whiskers</title>
      <line style="fill: rgb(216, 216, 216); stroke: rgb(0, 0, 0);" x1="282.588" y1="210.268" x2="194.222" y2="212.903"/>
      <line style="fill: rgb(216, 216, 216); stroke: rgb(0, 0, 0);" x1="282.309" y1="214.659" x2="205.966" y2="214.879"/>
      <line style="fill: rgb(216, 216, 216); stroke: rgb(0, 0, 0);" x1="281.47" y1="218.611" x2="214.635" y2="222.562"/>
      <line style="fill: rgb(216, 216, 216); stroke: rgb(0, 0, 0);" x1="279.792" y1="221.903" x2="198.975" y2="233.758"/>
      <line style="fill: rgb(216, 216, 216); stroke: rgb(0, 0, 0); transform-box: fill-box; transform-origin: 50% 50%;" x1="376.268" y1="202.298" x2="309.435" y2="210.893" transform="matrix(-1, 0, 0, -1, -0.000029, -0.000013)"/>
      <line style="fill: rgb(216, 216, 216); stroke: rgb(0, 0, 0); transform-box: fill-box; transform-origin: 50% 50%;" x1="390.531" y1="209.174" x2="307.197" y2="214.644" transform="matrix(-1, 0, 0, -1, -0.000001, -0.000027)"/>
      <line style="fill: rgb(216, 216, 216); stroke: rgb(0, 0, 0); transform-box: fill-box; transform-origin: 50% 50%;" x1="396.683" y1="220.113" x2="308.036" y2="217.457" transform="matrix(-1, 0, 0, -1, 0.000075, 0.000019)"/>
      <line style="fill: rgb(216, 216, 216); stroke: rgb(0, 0, 0); transform-box: fill-box; transform-origin: 50% 50%;" x1="372.075" y1="223.551" x2="309.714" y2="219.801" transform="matrix(-1, 0, 0, -1, 0.000022, 0.000026)"/>
    </g>
    <path style="fill: rgb(76, 54, 24);" d="M 315.692 230.839 C 315.692 230.839 311.909 275.756 326.567 280.484 C 341.225 285.212 346.9 285.685 361.084 275.756 C 375.269 265.828 367.703 230.839 367.703 230.839">
      <title>Nose</title>
    </path>
    <ellipse style="fill: rgb(155, 114, 60);" cx="201.768" cy="459.505" rx="59.58" ry="101.122">
      <title>Leg1</title>
    </ellipse>
    <ellipse style="fill: rgb(162, 166, 143); transform-box: fill-box; transform-origin: 50% 50%;" cx="621.399" cy="386.685" rx="46.287" ry="86.51" transform="matrix(0.949713, 0.313123, -0.313123, 0.949713, -296.908176, 90.862637)">
      <title>Leg2</title>
    </ellipse>
    <path style="fill: rgb(134, 88, 37);" d="M 150.732 306.434 C 150.732 306.434 206.754 411.352 234.289 405.653 C 261.824 399.956 296.005 353.907 296.005 353.907 C 295.892 353.719 309.139 353.757 320.703 351.228 C 329.133 349.385 333.501 348.196 337.64 346.008 C 341.057 344.58 343.353 332.994 336.421 336.273 C 332.124 338.946 327.776 339.649 320.187 341.33 C 313.372 342.84 302.836 343.424 300.278 343.936 C 296.873 344.621 304.431 341.043 321.061 339.478 C 329.69 338.665 333.626 334.166 341.429 331.114 C 347.634 328.453 341.802 320.257 336.193 322.857 C 335.616 322.512 328.566 325.341 320.961 326.547 C 310.752 328.166 299.347 328.367 299.41 328.404 C 298.175 327.783 309.196 327.401 319.506 325.168 C 329.463 323.011 331.017 323.268 336.79 320.345 C 340.018 318.866 340.879 314.333 338.727 311.323 C 336.728 308.527 334.757 307.866 331.604 310.248 C 327.747 313.162 324.909 314.079 317.776 313.958 C 315.424 313.92 304.005 314.608 301.887 312.941 C 301.101 312.324 301.172 313.699 302.289 311.851 C 303.586 309.708 307.78 312.429 317.021 312.386 C 321.455 312.367 327.368 309.711 332.524 308.407 C 337.406 307.797 338.198 301.376 335.273 301.385 C 329.069 301.404 323.873 300.353 315.667 299.652 C 307.803 298.98 297.91 294.943 294.871 298.511 C 294.871 298.511 272.271 320.676 237.139 331.12 C 224.586 334.85 185.891 270.612 175.467 271.363 C 156.093 272.759 152.277 307.049 150.732 306.434 Z">
      <title>Hand1</title>
    </path>
    <g transform="matrix(1.568481, 0, 0, 1.568481, -120.1537, -85.077758)" style="">
      <title>Hand2</title>
      <path style="fill: rgb(134, 88, 37);" d="M 278.702 283.993 C 273.861 287.848 270.874 313.904 274.788 315.145 C 274.07 317.155 300.904 314.725 308.064 314.075 C 318.622 309.713 330.792 294.268 333.191 280.632 C 336.703 260.657 329.177 242.448 325.294 243.233 C 322.183 240.671 310.708 243.958 310.857 244.081 C 311.281 243.93 312.578 272.071 303.094 279.021 C 299.676 281.61 296.225 281.286 296.225 281.286 C 296.225 281.286 287.726 280.941 278.702 283.993 Z">
        <title>Hand2 Arm</title>
      </path>
      <path style="fill: rgb(134, 88, 37);" d="M 310.573 242.836 C 306.45 244.754 297.451 245.325 295.798 247.08 C 294.938 247.993 294.889 248.334 295.027 249.732 C 295.225 251.735 297.501 252.075 297.501 252.075 C 299.552 252.784 302.559 253.002 306.425 252.268 C 308.682 251.84 311.231 251.028 314.055 249.955 C 314.522 249.778 314.759 250.618 314.327 250.87 C 312.575 251.892 309.736 253.329 306.874 253.818 C 302.455 254.574 298.044 254.06 297.977 253.943 C 297.977 253.943 295.703 255.541 295.634 257.187 C 295.556 259.053 297.829 260.32 297.829 260.32 C 297.758 260.362 301.393 260.524 305.326 260.176 C 309.726 259.787 314.543 258.883 315.861 258.933 C 316.534 258.958 310.598 260.914 305.311 261.626 C 301.397 262.153 297.778 261.495 297.778 261.495 C 296.119 260.902 293.328 264.513 295.934 267.074 C 296.579 267.708 300.407 268.143 304.429 268.131 C 309.658 268.114 315.276 267.525 315.276 267.525 C 315.484 267.789 309.761 269.425 304.445 269.828 C 300.63 270.117 297.024 269.426 295.968 268.745 C 294.161 267.58 291.27 272.327 294.701 274.18 C 296.076 274.922 299.897 275.415 303.362 275.483 C 307.068 275.555 310.372 275.179 310.042 275.326 C 306.389 276.952 321.869 277.662 321.869 277.662 C 321.869 277.662 324.695 275.813 324.543 274.104 C 324.373 272.2 321.636 269.734 321.636 269.734 C 321.636 269.734 325.457 267.02 325.731 263.745 C 325.894 261.796 323.437 258.518 323.437 258.518 C 323.437 258.518 326.546 254.657 325.981 252.441 C 325.434 250.295 322.271 248.814 322.271 248.814 C 322.271 248.814 324.054 245.589 323.301 244.144 C 321.648 240.971 317.005 242.07 317.005 242.07 C 317.005 242.07 313.181 241.623 310.573 242.836 Z">
        <title>Hand2 Fingers</title>
      </path>
    </g>
    <path stroke-width="0" d="M 222.806 46.349 C 225.418 46.587 233.561 50.683 235.305 52.163 C 236.102 52.838 235.731 53.393 236.177 53.906 C 236.667 54.473 237.241 54.115 238.211 55.36 C 240.866 58.768 250.348 74.757 252.743 82.682 C 254.598 88.817 255.019 94.071 253.908 98.96 C 252.846 103.614 249.068 109.65 246.64 111.456 C 245.093 112.609 243.383 112.455 241.99 112.039 C 240.565 111.611 239.389 110.224 238.211 108.84 C 236.844 107.236 233.564 102.518 232.979 101.865 C 231.821 100.573 229.965 97.976 228.329 93.725 C 225.488 86.348 220.239 61.948 219.028 57.685 C 218.664 56.406 218.611 56.77 218.446 55.942 C 218.182 54.626 217.478 51.595 217.864 50.126 C 218.174 48.958 219.064 48.144 219.899 47.512 C 220.716 46.895 221.363 46.218 222.806 46.349 Z" style="stroke-width: 2px; fill: rgb(152, 123, 73);">
      <title>EarShadow1</title>
    </path>
    <path style="fill: rgb(121, 102, 76);" d="M 325.222 512.552 C 325.222 512.552 335.639 509.628 345.377 508.8 C 354.343 508.037 358.378 508.889 364.699 507.394 C 372.982 505.436 380.125 497.514 388.583 497.6 C 393.918 497.655 401.048 498.743 404.939 500.746 C 410.988 503.859 419.047 512.643 419.047 512.643 L 429.622 529.493 C 435.682 539.327 424.159 551.803 419.141 542.985 C 419.141 542.985 413.918 531.578 410.421 526.736 C 407.486 522.669 407.962 520.833 405.034 519.58 C 402.973 518.699 399.288 515.901 400.668 521.183 C 400.668 521.183 405.666 527.988 407.274 531.976 C 409.135 536.585 409.529 538.589 410.617 546.719 C 411.707 554.851 400.422 560.061 399.881 554.129 C 399.881 554.129 397.844 543.595 395.817 540.375 C 394.033 537.54 390.855 530.457 390.855 530.457 C 387.999 525.2 383.935 531.379 384.881 534.636 C 384.881 534.636 386.755 544.322 386.982 548.825 C 387.247 554.054 387.987 555.72 386.93 563.631 C 385.873 571.541 373.753 570.682 374.125 564.391 C 374.125 564.391 373.48 557.315 371.974 552.936 C 370.457 548.536 370.465 538.691 370.465 538.691 L 363.407 534.594 L 358.629 537.894 C 358.629 537.894 359.479 546.361 359.049 549.4 C 358.284 554.792 353.538 564.127 353.538 564.127 C 354.035 568.942 340.729 569.446 340.924 562.654 C 340.924 562.654 344.278 552.967 343.232 548.227 C 342.338 544.178 336.384 538.451 336.384 538.451 C 338.399 540.305 322.629 563.563 311.254 560.51 C 307.338 559.461 289.703 557.026 285.527 553.514 C 279.429 548.388 278.025 540.997 278.025 540.997 C 278.025 540.997 280.902 529.086 281.007 529.086 C 281.111 529.086 289.596 518.041 289.596 518.041 C 289.596 518.041 299.243 512.602 299.346 512.602 C 299.45 512.602 313.971 514.078 313.971 514.078 L 325.222 512.552 Z">
      <title>Leg2</title>
    </path>
    <path style="fill: rgb(146, 108, 57);" d="M 212.689 522.065 C 212.689 522.065 213.012 543.228 224.144 542.399 C 234.397 541.637 239.011 542.49 246.238 540.995 C 255.708 539.036 263.877 531.114 273.548 531.201 C 279.648 531.255 287.798 532.343 292.251 534.345 C 299.166 537.46 308.38 546.242 308.38 546.242 L 320.473 563.093 C 327.403 572.925 314.225 585.403 308.489 576.585 C 308.489 576.585 302.516 565.179 298.517 560.336 C 295.162 556.269 295.705 554.431 292.357 553.179 C 290 552.299 285.788 549.501 287.366 554.783 C 287.366 554.783 293.079 561.589 294.921 565.577 C 297.047 570.185 297.497 572.189 298.742 580.319 C 299.987 588.451 287.086 593.661 286.466 587.729 C 286.466 587.729 284.136 577.195 281.818 573.975 C 279.779 571.141 276.145 564.057 276.145 564.057 C 272.881 558.8 268.235 564.98 269.314 568.236 C 269.314 568.236 271.457 577.923 271.717 582.423 C 272.021 587.655 272.868 589.321 271.657 597.231 C 270.448 605.14 256.588 604.283 257.017 597.989 C 257.017 597.989 256.278 590.915 254.554 586.535 C 252.823 582.136 252.832 572.291 252.832 572.291 L 244.761 568.194 L 239.296 571.495 C 239.296 571.495 240.271 579.961 239.777 583 C 238.902 588.393 233.475 597.727 233.475 597.727 C 234.044 602.541 218.832 603.045 219.052 596.254 C 219.052 596.254 222.889 586.568 221.692 581.827 C 220.671 577.779 213.862 572.05 213.862 572.05 C 216.168 573.904 198.744 564.844 185.738 561.791 C 181.259 560.74 171.769 559.22 166.992 555.708 C 160.022 550.583 158.415 543.191 158.415 543.191 C 158.415 543.191 161.705 531.28 161.825 531.28 C 161.944 531.28 171.647 520.235 171.647 520.235 C 171.647 520.235 182.675 514.795 182.795 514.795 C 182.914 514.795 199.518 516.272 199.518 516.272 L 212.689 522.065 Z">
      <title>Leg1</title>
    </path>
  </g>
</svg>